{"title":"Ek Tha Tiger.2012.720p.DVDRip.6Ch.By K@rtik [EXD ExclusivE]","uid":7673454,"size":1474265755,"categoryP":"video","categoryS":"hd___movies","magnet":"?xt=urn:btih:a7c71934f900c1a397a24254e0c5c337d1fbc91b&amp;dn=Ek+Tha+Tiger.2012.720p.DVDRip.6Ch.By+K%40rtik+%5BEXD+ExclusivE%5D&amp;tr=udp%3A%2F%2Ftracker.openbittorrent.com%3A80&amp;tr=udp%3A%2F%2Fopen.demonii.com%3A1337&amp;tr=udp%3A%2F%2Ftracker.coppersurfer.tk%3A6969&amp;tr=udp%3A%2F%2Fexodus.desync.com%3A6969","seeders":1,"leechers":0,"uploader":"TeamExD","files":4,"time":1348637954,"description":"Format                                   : Matroska\nFormat version                           : Version 2\nFile size                                : 1.36 GiB\nDuration                                 : 2h 13mn\nOverall bit rate                         : 1 466 Kbps\nMovie name                               : Ek Tha Tiger.2012.720p.DVDRip.6Ch.By K@rtik [EXD ExclusivE]\n\nCodec ID                                 : V_MPEG4/ISO/AVC\nDuration                                 : 2h 13mn\nBit rate                                 : 1 209 Kbps\nWidth                                    : 1 280 pixels\nHeight                                   : 566 pixels\nDisplay aspect ratio                     : 2.25:1\nFrame rate                               : 23.976 fps\nColor space                              : YUV\nChroma subsampling                       : 4:2:0\nBit depth                                : 8 bits\nScan type                                : Progressive\nBits/(Pixel*Frame)                       : 0.070\nStream size                              : 1.10 GiB (81%)\nTitle                                    : K@rtik\n\nCodec ID                                 : A_AC3\nDuration                                 : 2h 13mn\nBit rate mode                            : Constant\nBit rate                                 : 256 Kbps\nChannel(s)                               : 6 channels\nChannel positions                        : Front: L C R, Side: L R, LFE\nSampling rate                            : 48.0 KHz\nBit depth                                : 16 bits\nCompression mode                         : Lossy\nStream size                              : 244 MiB (17%)\nTitle                                    : K@rtik\nLanguage                                 : Hindi\n &lt;a href=&quot;\nhttp://imageshack.us/a/img4/4953/88787095.png&quot; rel=&quot;nofollow&quot; target=&quot;_NEW&quot;&gt;\nhttp://imageshack.us/a/img4/4953/88787095.png&lt;/a&gt; &lt;a href=&quot;\nhttp://imageshack.us/a/img812/8042/28516744.png&quot; rel=&quot;nofollow&quot; target=&quot;_NEW&quot;&gt;\nhttp://imageshack.us/a/img812/8042/28516744.png&lt;/a&gt; &lt;a href=&quot;\nhttp://imageshack.us/a/img189/8384/50424910.png&quot; rel=&quot;nofollow&quot; target=&quot;_NEW&quot;&gt;\nhttp://imageshack.us/a/img189/8384/50424910.png&lt;/a&gt; &lt;a href=&quot;\nhttp://imageshack.us/a/img213/323/52599162.png&quot; rel=&quot;nofollow&quot; target=&quot;_NEW&quot;&gt;\nhttp://imageshack.us/a/img213/323/52599162.png&lt;/a&gt; &lt;a href=&quot;\nhttp://imageshack.us/a/img217/3122/42812467.png&quot; rel=&quot;nofollow&quot; target=&quot;_NEW&quot;&gt;\nhttp://imageshack.us/a/img217/3122/42812467.png&lt;/a&gt; &lt;a href=&quot;\nhttp://imageshack.us/a/img577/3026/91623762.png&quot; rel=&quot;nofollow&quot; target=&quot;_NEW&quot;&gt;\nhttp://imageshack.us/a/img577/3026/91623762.png&lt;/a&gt; &lt;a href=&quot;\nhttp://imageshack.us/a/img717/9274/23904293.png&quot; rel=&quot;nofollow&quot; target=&quot;_NEW&quot;&gt;\nhttp://imageshack.us/a/img717/9274/23904293.png&lt;/a&gt; &lt;a href=&quot;\nhttp://imageshack.us/a/img21/2109/14391356.png&quot; rel=&quot;nofollow&quot; target=&quot;_NEW&quot;&gt;\nhttp://imageshack.us/a/img21/2109/14391356.png&lt;/a&gt; &lt;a href=&quot;\nhttp://imageshack.us/a/img827/4197/44185376.png&quot; rel=&quot;nofollow&quot; target=&quot;_NEW&quot;&gt;\nhttp://imageshack.us/a/img827/4197/44185376.png&lt;/a&gt; &lt;a href=&quot;\nhttp://imageshack.us/a/img525/7918/44456103.png&quot; rel=&quot;nofollow&quot; target=&quot;_NEW&quot;&gt;\nhttp://imageshack.us/a/img525/7918/44456103.png&lt;/a&gt; &lt;a href=&quot;\nhttp://imageshack.us/a/img853/7426/59709372.png&quot; rel=&quot;nofollow&quot; target=&quot;_NEW&quot;&gt;\nhttp://imageshack.us/a/img853/7426/59709372.png&lt;/a&gt; &lt;a href=&quot;\nhttp://imageshack.us/a/img600/9599/93939595.png&quot; rel=&quot;nofollow&quot; target=&quot;_NEW&quot;&gt;\nhttp://imageshack.us/a/img600/9599/93939595.png&lt;/a&gt; &lt;a href=&quot;\nhttp://imageshack.us/a/img88/9743/33957300.png&quot; rel=&quot;nofollow&quot; target=&quot;_NEW&quot;&gt;\nhttp://imageshack.us/a/img88/9743/33957300.png&lt;/a&gt;\n\n\n\n","torrent":{"xt":"urn:btih:a7c71934f900c1a397a24254e0c5c337d1fbc91b","amp;dn":"Ek+Tha+Tiger.2012.720p.DVDRip.6Ch.By+K%40rtik+%5BEXD+ExclusivE%5D","amp;tr":["udp%3A%2F%2Ftracker.openbittorrent.com%3A80","udp%3A%2F%2Fopen.demonii.com%3A1337","udp%3A%2F%2Ftracker.coppersurfer.tk%3A6969","udp%3A%2F%2Fexodus.desync.com%3A6969"],"infoHash":"a7c71934f900c1a397a24254e0c5c337d1fbc91b","infoHashBuffer":{"type":"Buffer","data":[167,199,25,52,249,0,193,163,151,162,66,84,224,197,195,55,209,251,201,27]},"announce":[],"urlList":[]}}